<svg version="1.1" xmlns="http://www.w3.org/2000/svg" xmlns:xlink="http://www.w3.org/1999/xlink" x="0px" y="0px"
	 width="841.89px" height="595.28px" viewBox="0 0 841.89 595.28" enable-background="new 0 0 841.89 595.28" xml:space="preserve">
<g id="rectbg">
	<rect x="0" fill="#FFFFFF" width="847.445" height="605.14"/>
</g>
<g id="light">
	<line fill="none" stroke="#000000" stroke-miterlimit="10" x1="148" y1="322" x2="348.591" y2="322"/>
	<line fill="none" stroke="#000000" stroke-miterlimit="10" x1="148" y1="342" x2="508" y2="342"/>
	<polyline fill="none" stroke="#000000" stroke-miterlimit="10" points="188,322 188.333,242.333 207.667,242.333 	"/>
	<path fill="none" stroke="#000000" stroke-miterlimit="10" d="M368,307h-20v20h20c5.523,0,10-4.477,10-10S373.523,307,368,307z"/>
	<line fill="none" stroke="#000000" stroke-miterlimit="10" x1="347.833" y1="252" x2="328.167" y2="252"/>
	<rect x="326.25" y="250.25" width="3.5" height="3.5"/>
	<path fill="none" stroke="#000000" stroke-miterlimit="10" d="M368,237h-20v20h20c5.523,0,10-4.477,10-10S373.523,237,368,237z"/>
	<polyline fill="none" stroke="#000000" stroke-miterlimit="10" points="348,313.25 328,313.25 328,290.75 	"/>
	<polyline fill="none" stroke="#000000" stroke-miterlimit="10" points="378,247 388,247 388,272 408,272 	"/>
	<polyline fill="none" stroke="#000000" stroke-miterlimit="10" points="378,317 388,317 388,282 408,282 	"/>
	<path fill="none" stroke="#000000" stroke-miterlimit="10" d="M406.881,266.5c-0.298,0-0.592,0.005-0.887,0.009
		c1.28,3.253,1.99,6.789,1.99,10.491s-0.71,7.238-1.99,10.491c0.295,0.004,0.59,0.009,0.887,0.009
		c14.977,0,27.119-4.701,27.119-10.5S421.858,266.5,406.881,266.5z"/>
	<line fill="none" stroke="#000000" stroke-miterlimit="10" x1="433.25" y1="277" x2="508.333" y2="277"/>
	<path fill="none" stroke="#000000" stroke-miterlimit="10" d="M488.5,192.5h-20v20h20c5.523,0,10-4.477,10-10
		S494.023,192.5,488.5,192.5z"/>
	<path fill="none" stroke="#000000" stroke-miterlimit="10" d="M469.381,222c-0.298,0-0.592,0.005-0.887,0.009
		c1.28,3.253,1.99,6.789,1.99,10.491s-0.71,7.238-1.99,10.491c0.295,0.004,0.59,0.009,0.887,0.009
		c14.977,0,27.119-4.701,27.119-10.5S484.358,222,469.381,222z"/>
	<polyline fill="none" stroke="#000000" stroke-miterlimit="10" points="468,207 458,207 458,382 	"/>
	<line fill="none" stroke="#000000" stroke-miterlimit="10" x1="457.75" y1="237.5" x2="470" y2="237.5"/>
	<rect x="456.25" y="340.25" width="3.5" height="3.5"/>
	<polyline fill="none" stroke="#000000" stroke-miterlimit="10" points="468,197 448,197 448,277 	"/>
	<line fill="none" stroke="#000000" stroke-miterlimit="10" x1="448" y1="227" x2="470" y2="227"/>
	<polygon fill="none" stroke="#240C0D" stroke-miterlimit="10" points="508.892,268.706 508.892,307.235 530.821,312.875
		508.737,318.514 508.737,357.358 553.221,345.923 553.221,279.982 	"/>
	<line fill="none" stroke="#240C0D" stroke-miterlimit="10" x1="498.858" y1="202" x2="628.333" y2="202"/>
	<line fill="none" stroke="#240C0D" stroke-miterlimit="10" x1="496.5" y1="232" x2="627.94" y2="232"/>
	<line fill="none" stroke="#240C0D" stroke-miterlimit="10" x1="553" y1="312" x2="628" y2="312"/>
	<polyline fill="none" stroke="#240C0D" stroke-miterlimit="10" points="568,312 568,362 578,362 	"/>
	<polygon fill="none" stroke="#000000" stroke-miterlimit="10" points="607.715,368.535 578.698,368.535 578.698,356.605
		607.715,344.674 	"/>
	<line fill="none" stroke="#000000" stroke-miterlimit="10" x1="607.5" y1="362" x2="628" y2="362"/>
</g>
<g id="noLit">
	<g id="图层_2_1_">
		<polygon fill="none" stroke="#000000" stroke-miterlimit="10" points="207,231.333 207,254 234.667,243.333 		"/>
		<circle fill="none" stroke="#000000" stroke-miterlimit="10" cx="237.833" cy="243.833" r="2.5"/>
		<line fill="none" stroke="#000000" stroke-miterlimit="10" x1="240.333" y1="243" x2="346.5" y2="243"/>
		<polygon fill="none" stroke="#000000" stroke-miterlimit="10" points="338.333,258.167 315.667,258.167 327,285.833 		"/>
		<circle fill="none" stroke="#000000" stroke-miterlimit="10" cx="327" cy="289" r="2.5"/>
		<line fill="none" stroke="#000000" stroke-miterlimit="10" x1="327" y1="258.25" x2="327" y2="223.75"/>
		<polygon fill="none" stroke="#000000" stroke-miterlimit="10" points="667,363 627.74,385.888 627.74,182.461 667,203 		"/>
		<line fill="none" stroke="#000000" stroke-miterlimit="10" x1="667" y1="282.667" x2="707" y2="282.667"/>
	</g>
</g>
</svg>
